<mxfile host="app.diagrams.net" modified="2023-08-25T00:49:22.984Z" agent="Mozilla/5.0 (X11; Ubuntu; Linux x86_64; rv:109.0) Gecko/20100101 Firefox/116.0" etag="b3MS62dANw4_Pko2sZRc" version="21.6.9" type="device">
  <diagram name="Página-1" id="qjqr1vdx0nleHX9-5Y5X">
    <mxGraphModel dx="2910" dy="1750" grid="1" gridSize="10" guides="1" tooltips="1" connect="1" arrows="1" fold="1" page="1" pageScale="1" pageWidth="827" pageHeight="1169" math="0" shadow="0">
      <root>
        <mxCell id="0" />
        <mxCell id="1" parent="0" />
        <mxCell id="eemQ0yOxbv3hMDpRS6ys-62" style="edgeStyle=orthogonalEdgeStyle;rounded=0;orthogonalLoop=1;jettySize=auto;html=1;entryX=0;entryY=0.5;entryDx=0;entryDy=0;fontSize=22;" edge="1" parent="1" source="eemQ0yOxbv3hMDpRS6ys-52" target="eemQ0yOxbv3hMDpRS6ys-61">
          <mxGeometry relative="1" as="geometry" />
        </mxCell>
        <mxCell id="eemQ0yOxbv3hMDpRS6ys-110" style="edgeStyle=orthogonalEdgeStyle;rounded=0;orthogonalLoop=1;jettySize=auto;html=1;fontSize=22;" edge="1" parent="1" source="eemQ0yOxbv3hMDpRS6ys-52" target="eemQ0yOxbv3hMDpRS6ys-64">
          <mxGeometry relative="1" as="geometry" />
        </mxCell>
        <mxCell id="eemQ0yOxbv3hMDpRS6ys-147" style="edgeStyle=orthogonalEdgeStyle;rounded=0;orthogonalLoop=1;jettySize=auto;html=1;entryX=0.5;entryY=1;entryDx=0;entryDy=0;fontSize=22;" edge="1" parent="1" source="eemQ0yOxbv3hMDpRS6ys-52" target="eemQ0yOxbv3hMDpRS6ys-146">
          <mxGeometry relative="1" as="geometry" />
        </mxCell>
        <mxCell id="eemQ0yOxbv3hMDpRS6ys-52" value="Barbearia" style="rounded=0;whiteSpace=wrap;html=1;fillColor=#ffe6cc;strokeColor=#d79b00;fontSize=22;" vertex="1" parent="1">
          <mxGeometry x="-110" y="40" width="120" height="60" as="geometry" />
        </mxCell>
        <mxCell id="eemQ0yOxbv3hMDpRS6ys-97" style="edgeStyle=orthogonalEdgeStyle;rounded=0;orthogonalLoop=1;jettySize=auto;html=1;entryX=1;entryY=0.5;entryDx=0;entryDy=0;fontSize=22;" edge="1" parent="1" source="eemQ0yOxbv3hMDpRS6ys-53" target="eemQ0yOxbv3hMDpRS6ys-88">
          <mxGeometry relative="1" as="geometry" />
        </mxCell>
        <mxCell id="eemQ0yOxbv3hMDpRS6ys-155" style="edgeStyle=orthogonalEdgeStyle;rounded=0;orthogonalLoop=1;jettySize=auto;html=1;fontSize=22;" edge="1" parent="1" source="eemQ0yOxbv3hMDpRS6ys-53" target="eemQ0yOxbv3hMDpRS6ys-154">
          <mxGeometry relative="1" as="geometry" />
        </mxCell>
        <mxCell id="eemQ0yOxbv3hMDpRS6ys-53" value="Historico de Atendimento" style="rounded=0;whiteSpace=wrap;html=1;fillColor=#ffe6cc;strokeColor=#d79b00;fontSize=22;" vertex="1" parent="1">
          <mxGeometry x="1050" y="850" width="160" height="80" as="geometry" />
        </mxCell>
        <mxCell id="eemQ0yOxbv3hMDpRS6ys-79" style="edgeStyle=orthogonalEdgeStyle;rounded=0;orthogonalLoop=1;jettySize=auto;html=1;entryX=1;entryY=0.5;entryDx=0;entryDy=0;fontSize=22;" edge="1" parent="1" source="eemQ0yOxbv3hMDpRS6ys-54" target="eemQ0yOxbv3hMDpRS6ys-71">
          <mxGeometry relative="1" as="geometry" />
        </mxCell>
        <mxCell id="eemQ0yOxbv3hMDpRS6ys-149" style="edgeStyle=orthogonalEdgeStyle;rounded=0;orthogonalLoop=1;jettySize=auto;html=1;fontSize=22;" edge="1" parent="1" source="eemQ0yOxbv3hMDpRS6ys-54" target="eemQ0yOxbv3hMDpRS6ys-148">
          <mxGeometry relative="1" as="geometry" />
        </mxCell>
        <mxCell id="eemQ0yOxbv3hMDpRS6ys-54" value="Cliente" style="rounded=0;whiteSpace=wrap;html=1;fillColor=#ffe6cc;strokeColor=#d79b00;fontSize=22;" vertex="1" parent="1">
          <mxGeometry x="480" y="1020" width="120" height="60" as="geometry" />
        </mxCell>
        <mxCell id="eemQ0yOxbv3hMDpRS6ys-140" style="edgeStyle=orthogonalEdgeStyle;rounded=0;orthogonalLoop=1;jettySize=auto;html=1;exitX=1;exitY=0.75;exitDx=0;exitDy=0;entryX=0;entryY=0.5;entryDx=0;entryDy=0;fontSize=22;" edge="1" parent="1" source="eemQ0yOxbv3hMDpRS6ys-55" target="eemQ0yOxbv3hMDpRS6ys-139">
          <mxGeometry relative="1" as="geometry" />
        </mxCell>
        <mxCell id="eemQ0yOxbv3hMDpRS6ys-55" value="&lt;font style=&quot;font-size: 22px;&quot;&gt;Serviço&lt;/font&gt;" style="rounded=0;whiteSpace=wrap;html=1;fillColor=#ffe6cc;strokeColor=#d79b00;fontSize=22;" vertex="1" parent="1">
          <mxGeometry x="-260" y="555" width="160" height="60" as="geometry" />
        </mxCell>
        <mxCell id="eemQ0yOxbv3hMDpRS6ys-143" style="edgeStyle=orthogonalEdgeStyle;rounded=0;orthogonalLoop=1;jettySize=auto;html=1;entryX=1;entryY=0.5;entryDx=0;entryDy=0;fontSize=22;" edge="1" parent="1" source="eemQ0yOxbv3hMDpRS6ys-56" target="eemQ0yOxbv3hMDpRS6ys-142">
          <mxGeometry relative="1" as="geometry" />
        </mxCell>
        <mxCell id="eemQ0yOxbv3hMDpRS6ys-56" value="Produto" style="rounded=0;whiteSpace=wrap;html=1;fillColor=#ffe6cc;strokeColor=#d79b00;fontSize=22;" vertex="1" parent="1">
          <mxGeometry x="-630" y="570" width="120" height="60" as="geometry" />
        </mxCell>
        <mxCell id="eemQ0yOxbv3hMDpRS6ys-80" style="edgeStyle=orthogonalEdgeStyle;rounded=0;orthogonalLoop=1;jettySize=auto;html=1;entryX=1;entryY=0.5;entryDx=0;entryDy=0;fontSize=22;" edge="1" parent="1" source="eemQ0yOxbv3hMDpRS6ys-57" target="eemQ0yOxbv3hMDpRS6ys-68">
          <mxGeometry relative="1" as="geometry" />
        </mxCell>
        <mxCell id="eemQ0yOxbv3hMDpRS6ys-145" style="edgeStyle=orthogonalEdgeStyle;rounded=0;orthogonalLoop=1;jettySize=auto;html=1;exitX=0.75;exitY=0;exitDx=0;exitDy=0;fontSize=22;" edge="1" parent="1" source="eemQ0yOxbv3hMDpRS6ys-57" target="eemQ0yOxbv3hMDpRS6ys-144">
          <mxGeometry relative="1" as="geometry" />
        </mxCell>
        <mxCell id="eemQ0yOxbv3hMDpRS6ys-57" value="Funcionario" style="rounded=0;whiteSpace=wrap;html=1;fillColor=#ffe6cc;strokeColor=#d79b00;fontSize=22;" vertex="1" parent="1">
          <mxGeometry x="310" y="340" width="120" height="60" as="geometry" />
        </mxCell>
        <mxCell id="eemQ0yOxbv3hMDpRS6ys-75" style="edgeStyle=orthogonalEdgeStyle;rounded=0;orthogonalLoop=1;jettySize=auto;html=1;fontSize=22;" edge="1" parent="1" source="eemQ0yOxbv3hMDpRS6ys-58" target="eemQ0yOxbv3hMDpRS6ys-74">
          <mxGeometry relative="1" as="geometry" />
        </mxCell>
        <mxCell id="eemQ0yOxbv3hMDpRS6ys-151" style="edgeStyle=orthogonalEdgeStyle;rounded=0;orthogonalLoop=1;jettySize=auto;html=1;fontSize=22;" edge="1" parent="1" source="eemQ0yOxbv3hMDpRS6ys-58" target="eemQ0yOxbv3hMDpRS6ys-150">
          <mxGeometry relative="1" as="geometry" />
        </mxCell>
        <mxCell id="eemQ0yOxbv3hMDpRS6ys-58" value="Agendamento" style="rounded=0;whiteSpace=wrap;html=1;fillColor=#ffe6cc;strokeColor=#d79b00;fontSize=22;" vertex="1" parent="1">
          <mxGeometry x="-487" y="1010" width="158" height="80" as="geometry" />
        </mxCell>
        <mxCell id="eemQ0yOxbv3hMDpRS6ys-87" style="edgeStyle=orthogonalEdgeStyle;rounded=0;orthogonalLoop=1;jettySize=auto;html=1;entryX=1;entryY=0.5;entryDx=0;entryDy=0;fontSize=22;" edge="1" parent="1" source="eemQ0yOxbv3hMDpRS6ys-59" target="eemQ0yOxbv3hMDpRS6ys-84">
          <mxGeometry relative="1" as="geometry" />
        </mxCell>
        <mxCell id="eemQ0yOxbv3hMDpRS6ys-116" style="edgeStyle=orthogonalEdgeStyle;rounded=0;orthogonalLoop=1;jettySize=auto;html=1;entryX=0;entryY=0.5;entryDx=0;entryDy=0;fontSize=22;" edge="1" parent="1" source="eemQ0yOxbv3hMDpRS6ys-59" target="eemQ0yOxbv3hMDpRS6ys-81">
          <mxGeometry relative="1" as="geometry" />
        </mxCell>
        <mxCell id="eemQ0yOxbv3hMDpRS6ys-153" style="edgeStyle=orthogonalEdgeStyle;rounded=0;orthogonalLoop=1;jettySize=auto;html=1;entryX=0;entryY=0.5;entryDx=0;entryDy=0;fontSize=22;" edge="1" parent="1" source="eemQ0yOxbv3hMDpRS6ys-59" target="eemQ0yOxbv3hMDpRS6ys-152">
          <mxGeometry relative="1" as="geometry" />
        </mxCell>
        <mxCell id="eemQ0yOxbv3hMDpRS6ys-59" value="&lt;font style=&quot;font-size: 22px;&quot;&gt;Carrinho de Compras&lt;/font&gt;" style="rounded=0;whiteSpace=wrap;html=1;fillColor=#ffe6cc;strokeColor=#d79b00;fontSize=22;" vertex="1" parent="1">
          <mxGeometry x="180" y="785" width="160" height="65" as="geometry" />
        </mxCell>
        <mxCell id="eemQ0yOxbv3hMDpRS6ys-102" style="edgeStyle=orthogonalEdgeStyle;rounded=0;orthogonalLoop=1;jettySize=auto;html=1;fontSize=22;" edge="1" parent="1" source="eemQ0yOxbv3hMDpRS6ys-60" target="eemQ0yOxbv3hMDpRS6ys-99">
          <mxGeometry relative="1" as="geometry" />
        </mxCell>
        <mxCell id="eemQ0yOxbv3hMDpRS6ys-104" style="edgeStyle=orthogonalEdgeStyle;rounded=0;orthogonalLoop=1;jettySize=auto;html=1;entryX=0;entryY=0.5;entryDx=0;entryDy=0;fontSize=22;" edge="1" parent="1" source="eemQ0yOxbv3hMDpRS6ys-60" target="eemQ0yOxbv3hMDpRS6ys-103">
          <mxGeometry relative="1" as="geometry" />
        </mxCell>
        <mxCell id="eemQ0yOxbv3hMDpRS6ys-159" style="edgeStyle=orthogonalEdgeStyle;rounded=0;orthogonalLoop=1;jettySize=auto;html=1;entryX=0.5;entryY=1;entryDx=0;entryDy=0;fontSize=22;" edge="1" parent="1" source="eemQ0yOxbv3hMDpRS6ys-60" target="eemQ0yOxbv3hMDpRS6ys-156">
          <mxGeometry relative="1" as="geometry" />
        </mxCell>
        <mxCell id="eemQ0yOxbv3hMDpRS6ys-60" value="Tabela de Faturamento do Funcionário" style="rounded=0;whiteSpace=wrap;html=1;fillColor=#ffe6cc;strokeColor=#d79b00;fontSize=22;" vertex="1" parent="1">
          <mxGeometry x="1000" y="325" width="170" height="90" as="geometry" />
        </mxCell>
        <mxCell id="eemQ0yOxbv3hMDpRS6ys-63" style="edgeStyle=orthogonalEdgeStyle;rounded=0;orthogonalLoop=1;jettySize=auto;html=1;fontSize=22;" edge="1" parent="1" source="eemQ0yOxbv3hMDpRS6ys-61" target="eemQ0yOxbv3hMDpRS6ys-57">
          <mxGeometry relative="1" as="geometry" />
        </mxCell>
        <mxCell id="eemQ0yOxbv3hMDpRS6ys-61" value="Contratar" style="rhombus;whiteSpace=wrap;html=1;fillColor=#dae8fc;strokeColor=#6c8ebf;fontSize=22;" vertex="1" parent="1">
          <mxGeometry x="320" y="30" width="100" height="80" as="geometry" />
        </mxCell>
        <mxCell id="eemQ0yOxbv3hMDpRS6ys-65" style="edgeStyle=orthogonalEdgeStyle;rounded=0;orthogonalLoop=1;jettySize=auto;html=1;entryX=0.5;entryY=0;entryDx=0;entryDy=0;fontSize=22;" edge="1" parent="1" source="eemQ0yOxbv3hMDpRS6ys-64" target="eemQ0yOxbv3hMDpRS6ys-56">
          <mxGeometry relative="1" as="geometry">
            <mxPoint x="-30" y="270" as="targetPoint" />
          </mxGeometry>
        </mxCell>
        <mxCell id="eemQ0yOxbv3hMDpRS6ys-67" style="edgeStyle=orthogonalEdgeStyle;rounded=0;orthogonalLoop=1;jettySize=auto;html=1;fontSize=22;" edge="1" parent="1" source="eemQ0yOxbv3hMDpRS6ys-64" target="eemQ0yOxbv3hMDpRS6ys-55">
          <mxGeometry relative="1" as="geometry" />
        </mxCell>
        <mxCell id="eemQ0yOxbv3hMDpRS6ys-64" value="Oferecer" style="rhombus;whiteSpace=wrap;html=1;fillColor=#dae8fc;strokeColor=#6c8ebf;fontSize=22;" vertex="1" parent="1">
          <mxGeometry x="-430" y="260" width="130" height="80" as="geometry" />
        </mxCell>
        <mxCell id="eemQ0yOxbv3hMDpRS6ys-70" style="edgeStyle=orthogonalEdgeStyle;rounded=0;orthogonalLoop=1;jettySize=auto;html=1;entryX=1;entryY=0.5;entryDx=0;entryDy=0;fontSize=22;" edge="1" parent="1" source="eemQ0yOxbv3hMDpRS6ys-68" target="eemQ0yOxbv3hMDpRS6ys-55">
          <mxGeometry relative="1" as="geometry" />
        </mxCell>
        <mxCell id="eemQ0yOxbv3hMDpRS6ys-68" value="Realizar" style="rhombus;whiteSpace=wrap;html=1;fillColor=#dae8fc;strokeColor=#6c8ebf;fontSize=22;" vertex="1" parent="1">
          <mxGeometry y="330" width="120" height="80" as="geometry" />
        </mxCell>
        <mxCell id="eemQ0yOxbv3hMDpRS6ys-73" style="edgeStyle=orthogonalEdgeStyle;rounded=0;orthogonalLoop=1;jettySize=auto;html=1;fontSize=22;" edge="1" parent="1" source="eemQ0yOxbv3hMDpRS6ys-71" target="eemQ0yOxbv3hMDpRS6ys-58">
          <mxGeometry relative="1" as="geometry" />
        </mxCell>
        <mxCell id="eemQ0yOxbv3hMDpRS6ys-71" value="Fazer" style="rhombus;whiteSpace=wrap;html=1;fillColor=#dae8fc;strokeColor=#6c8ebf;fontSize=22;" vertex="1" parent="1">
          <mxGeometry x="-20" y="1020" width="140" height="60" as="geometry" />
        </mxCell>
        <mxCell id="eemQ0yOxbv3hMDpRS6ys-76" style="edgeStyle=orthogonalEdgeStyle;rounded=0;orthogonalLoop=1;jettySize=auto;html=1;exitX=1;exitY=0;exitDx=0;exitDy=0;fontSize=22;" edge="1" parent="1" source="eemQ0yOxbv3hMDpRS6ys-74" target="eemQ0yOxbv3hMDpRS6ys-55">
          <mxGeometry relative="1" as="geometry" />
        </mxCell>
        <mxCell id="eemQ0yOxbv3hMDpRS6ys-77" style="edgeStyle=orthogonalEdgeStyle;rounded=0;orthogonalLoop=1;jettySize=auto;html=1;exitX=0;exitY=0;exitDx=0;exitDy=0;fontSize=22;" edge="1" parent="1" source="eemQ0yOxbv3hMDpRS6ys-74" target="eemQ0yOxbv3hMDpRS6ys-56">
          <mxGeometry relative="1" as="geometry" />
        </mxCell>
        <mxCell id="eemQ0yOxbv3hMDpRS6ys-74" value="Associado" style="rhombus;whiteSpace=wrap;html=1;fillColor=#dae8fc;strokeColor=#6c8ebf;fontSize=22;" vertex="1" parent="1">
          <mxGeometry x="-478" y="700" width="140" height="80" as="geometry" />
        </mxCell>
        <mxCell id="eemQ0yOxbv3hMDpRS6ys-117" style="edgeStyle=orthogonalEdgeStyle;rounded=0;orthogonalLoop=1;jettySize=auto;html=1;fontSize=22;" edge="1" parent="1" source="eemQ0yOxbv3hMDpRS6ys-81" target="eemQ0yOxbv3hMDpRS6ys-54">
          <mxGeometry relative="1" as="geometry" />
        </mxCell>
        <mxCell id="eemQ0yOxbv3hMDpRS6ys-81" value="Pertence" style="rhombus;whiteSpace=wrap;html=1;fillColor=#dae8fc;strokeColor=#6c8ebf;fontSize=22;" vertex="1" parent="1">
          <mxGeometry x="470" y="777.5" width="140" height="80" as="geometry" />
        </mxCell>
        <mxCell id="eemQ0yOxbv3hMDpRS6ys-85" style="edgeStyle=orthogonalEdgeStyle;rounded=0;orthogonalLoop=1;jettySize=auto;html=1;entryX=1;entryY=0.5;entryDx=0;entryDy=0;fontSize=22;" edge="1" parent="1" source="eemQ0yOxbv3hMDpRS6ys-84" target="eemQ0yOxbv3hMDpRS6ys-56">
          <mxGeometry relative="1" as="geometry" />
        </mxCell>
        <mxCell id="eemQ0yOxbv3hMDpRS6ys-86" style="edgeStyle=orthogonalEdgeStyle;rounded=0;orthogonalLoop=1;jettySize=auto;html=1;entryX=0.836;entryY=1.079;entryDx=0;entryDy=0;entryPerimeter=0;fontSize=22;" edge="1" parent="1" source="eemQ0yOxbv3hMDpRS6ys-84" target="eemQ0yOxbv3hMDpRS6ys-55">
          <mxGeometry relative="1" as="geometry" />
        </mxCell>
        <mxCell id="eemQ0yOxbv3hMDpRS6ys-84" value="Contém" style="rhombus;whiteSpace=wrap;html=1;fillColor=#dae8fc;strokeColor=#6c8ebf;fontSize=22;" vertex="1" parent="1">
          <mxGeometry x="-70" y="780" width="120" height="80" as="geometry" />
        </mxCell>
        <mxCell id="eemQ0yOxbv3hMDpRS6ys-91" style="edgeStyle=orthogonalEdgeStyle;rounded=0;orthogonalLoop=1;jettySize=auto;html=1;entryX=0.75;entryY=0;entryDx=0;entryDy=0;fontSize=22;" edge="1" parent="1" source="eemQ0yOxbv3hMDpRS6ys-88" target="eemQ0yOxbv3hMDpRS6ys-58">
          <mxGeometry relative="1" as="geometry" />
        </mxCell>
        <mxCell id="eemQ0yOxbv3hMDpRS6ys-88" value="Registra" style="rhombus;whiteSpace=wrap;html=1;fillColor=#dae8fc;strokeColor=#6c8ebf;fontSize=22;" vertex="1" parent="1">
          <mxGeometry x="690" y="850" width="120" height="80" as="geometry" />
        </mxCell>
        <mxCell id="eemQ0yOxbv3hMDpRS6ys-96" style="edgeStyle=orthogonalEdgeStyle;rounded=0;orthogonalLoop=1;jettySize=auto;html=1;entryX=0.5;entryY=0;entryDx=0;entryDy=0;fontSize=22;" edge="1" parent="1" source="eemQ0yOxbv3hMDpRS6ys-92" target="eemQ0yOxbv3hMDpRS6ys-93">
          <mxGeometry relative="1" as="geometry" />
        </mxCell>
        <mxCell id="eemQ0yOxbv3hMDpRS6ys-92" value="Financeiro" style="rounded=0;whiteSpace=wrap;html=1;fillColor=#ffe6cc;strokeColor=#d79b00;fontSize=22;" vertex="1" parent="1">
          <mxGeometry x="1290" y="555" width="120" height="60" as="geometry" />
        </mxCell>
        <mxCell id="eemQ0yOxbv3hMDpRS6ys-95" style="edgeStyle=orthogonalEdgeStyle;rounded=0;orthogonalLoop=1;jettySize=auto;html=1;fontSize=22;" edge="1" parent="1" source="eemQ0yOxbv3hMDpRS6ys-93" target="eemQ0yOxbv3hMDpRS6ys-53">
          <mxGeometry relative="1" as="geometry" />
        </mxCell>
        <mxCell id="eemQ0yOxbv3hMDpRS6ys-93" value="Contém" style="rhombus;whiteSpace=wrap;html=1;fillColor=#dae8fc;strokeColor=#6c8ebf;fontSize=22;" vertex="1" parent="1">
          <mxGeometry x="1060" y="690" width="140" height="80" as="geometry" />
        </mxCell>
        <mxCell id="eemQ0yOxbv3hMDpRS6ys-100" style="edgeStyle=orthogonalEdgeStyle;rounded=0;orthogonalLoop=1;jettySize=auto;html=1;entryX=1;entryY=0.5;entryDx=0;entryDy=0;fontSize=22;" edge="1" parent="1" source="eemQ0yOxbv3hMDpRS6ys-99" target="eemQ0yOxbv3hMDpRS6ys-57">
          <mxGeometry relative="1" as="geometry" />
        </mxCell>
        <mxCell id="eemQ0yOxbv3hMDpRS6ys-99" value="Associado" style="rhombus;whiteSpace=wrap;html=1;fillColor=#dae8fc;strokeColor=#6c8ebf;fontSize=22;" vertex="1" parent="1">
          <mxGeometry x="630" y="330" width="140" height="80" as="geometry" />
        </mxCell>
        <mxCell id="eemQ0yOxbv3hMDpRS6ys-105" style="edgeStyle=orthogonalEdgeStyle;rounded=0;orthogonalLoop=1;jettySize=auto;html=1;entryX=0.5;entryY=0;entryDx=0;entryDy=0;fontSize=22;" edge="1" parent="1" source="eemQ0yOxbv3hMDpRS6ys-103" target="eemQ0yOxbv3hMDpRS6ys-92">
          <mxGeometry relative="1" as="geometry" />
        </mxCell>
        <mxCell id="eemQ0yOxbv3hMDpRS6ys-103" value="Registra" style="rhombus;whiteSpace=wrap;html=1;fillColor=#dae8fc;strokeColor=#6c8ebf;fontSize=22;" vertex="1" parent="1">
          <mxGeometry x="1285" y="330" width="130" height="80" as="geometry" />
        </mxCell>
        <mxCell id="eemQ0yOxbv3hMDpRS6ys-107" value="1 : N" style="text;html=1;strokeColor=none;fillColor=none;align=center;verticalAlign=middle;whiteSpace=wrap;rounded=0;fontSize=22;fontStyle=1" vertex="1" parent="1">
          <mxGeometry x="295" y="-60" width="150" height="70" as="geometry" />
        </mxCell>
        <mxCell id="eemQ0yOxbv3hMDpRS6ys-113" value="1 : N" style="text;html=1;strokeColor=none;fillColor=none;align=center;verticalAlign=middle;whiteSpace=wrap;rounded=0;fontSize=22;fontStyle=1" vertex="1" parent="1">
          <mxGeometry x="-440" y="345" width="150" height="70" as="geometry" />
        </mxCell>
        <mxCell id="eemQ0yOxbv3hMDpRS6ys-114" value="1 : 0" style="text;html=1;strokeColor=none;fillColor=none;align=center;verticalAlign=middle;whiteSpace=wrap;rounded=0;fontSize=22;fontStyle=1" vertex="1" parent="1">
          <mxGeometry x="-550" y="802.5" width="150" height="70" as="geometry" />
        </mxCell>
        <mxCell id="eemQ0yOxbv3hMDpRS6ys-115" value="1 : N" style="text;html=1;strokeColor=none;fillColor=none;align=center;verticalAlign=middle;whiteSpace=wrap;rounded=0;fontSize=22;fontStyle=1" vertex="1" parent="1">
          <mxGeometry x="-25" y="940" width="150" height="70" as="geometry" />
        </mxCell>
        <mxCell id="eemQ0yOxbv3hMDpRS6ys-118" value="1 : 0" style="text;html=1;strokeColor=none;fillColor=none;align=center;verticalAlign=middle;whiteSpace=wrap;rounded=0;fontSize=22;fontStyle=1" vertex="1" parent="1">
          <mxGeometry x="460" y="715" width="150" height="70" as="geometry" />
        </mxCell>
        <mxCell id="eemQ0yOxbv3hMDpRS6ys-119" value="N : 0" style="text;html=1;strokeColor=none;fillColor=none;align=center;verticalAlign=middle;whiteSpace=wrap;rounded=0;fontSize=22;fontStyle=1" vertex="1" parent="1">
          <mxGeometry x="-90" y="700" width="150" height="70" as="geometry" />
        </mxCell>
        <mxCell id="eemQ0yOxbv3hMDpRS6ys-120" value="1 : N" style="text;html=1;strokeColor=none;fillColor=none;align=center;verticalAlign=middle;whiteSpace=wrap;rounded=0;fontSize=22;fontStyle=1" vertex="1" parent="1">
          <mxGeometry x="670" y="770" width="150" height="70" as="geometry" />
        </mxCell>
        <mxCell id="eemQ0yOxbv3hMDpRS6ys-121" value="1 : 1" style="text;html=1;strokeColor=none;fillColor=none;align=center;verticalAlign=middle;whiteSpace=wrap;rounded=0;fontSize=22;fontStyle=1" vertex="1" parent="1">
          <mxGeometry x="625" y="275" width="150" height="70" as="geometry" />
        </mxCell>
        <mxCell id="eemQ0yOxbv3hMDpRS6ys-122" value="1 : N" style="text;html=1;strokeColor=none;fillColor=none;align=center;verticalAlign=middle;whiteSpace=wrap;rounded=0;fontSize=22;fontStyle=1" vertex="1" parent="1">
          <mxGeometry x="1285" y="240" width="150" height="70" as="geometry" />
        </mxCell>
        <mxCell id="eemQ0yOxbv3hMDpRS6ys-124" value="1 : N" style="text;html=1;strokeColor=none;fillColor=none;align=center;verticalAlign=middle;whiteSpace=wrap;rounded=0;fontSize=22;fontStyle=1" vertex="1" parent="1">
          <mxGeometry x="-15" y="240" width="150" height="70" as="geometry" />
        </mxCell>
        <mxCell id="eemQ0yOxbv3hMDpRS6ys-125" value="1 : N" style="text;html=1;strokeColor=none;fillColor=none;align=center;verticalAlign=middle;whiteSpace=wrap;rounded=0;fontSize=22;fontStyle=1" vertex="1" parent="1">
          <mxGeometry x="1210" y="700" width="150" height="70" as="geometry" />
        </mxCell>
        <mxCell id="eemQ0yOxbv3hMDpRS6ys-139" value="&lt;ul&gt;&lt;li&gt;nome&lt;/li&gt;&lt;li&gt;Descrição&lt;/li&gt;&lt;li&gt;Preço&lt;/li&gt;&lt;li&gt;Duração&lt;/li&gt;&lt;/ul&gt;" style="ellipse;whiteSpace=wrap;html=1;fontSize=22;fillColor=#e1d5e7;strokeColor=#9673a6;align=left;" vertex="1" parent="1">
          <mxGeometry x="130" y="440" width="190" height="210" as="geometry" />
        </mxCell>
        <mxCell id="eemQ0yOxbv3hMDpRS6ys-142" value="&lt;ul&gt;&lt;li&gt;nome&lt;/li&gt;&lt;li&gt;Descrição&lt;/li&gt;&lt;li&gt;Preço&lt;/li&gt;&lt;/ul&gt;" style="ellipse;whiteSpace=wrap;html=1;fontSize=22;fillColor=#e1d5e7;strokeColor=#9673a6;align=left;" vertex="1" parent="1">
          <mxGeometry x="-970" y="370" width="170" height="190" as="geometry" />
        </mxCell>
        <mxCell id="eemQ0yOxbv3hMDpRS6ys-144" value="&lt;div style=&quot;font-size: 22px;&quot;&gt;&lt;ul style=&quot;font-size: 22px;&quot;&gt;&lt;li style=&quot;font-size: 22px;&quot;&gt;Nome&lt;/li&gt;&lt;li style=&quot;font-size: 22px;&quot;&gt;Especialidades&lt;/li&gt;&lt;li style=&quot;font-size: 22px;&quot;&gt;Comissão&lt;/li&gt;&lt;li style=&quot;font-size: 22px;&quot;&gt;Acesso a Agenda pessoal e faturamento&lt;/li&gt;&lt;/ul&gt;&lt;/div&gt;" style="ellipse;whiteSpace=wrap;html=1;fontSize=22;fillColor=#e1d5e7;strokeColor=#9673a6;align=left;" vertex="1" parent="1">
          <mxGeometry x="690" y="-60" width="230" height="270" as="geometry" />
        </mxCell>
        <mxCell id="eemQ0yOxbv3hMDpRS6ys-146" value="&lt;ul style=&quot;font-size: 22px;&quot;&gt;&lt;li style=&quot;font-size: 22px;&quot;&gt;&lt;font style=&quot;font-size: 22px;&quot;&gt;Nome&lt;/font&gt;&lt;/li&gt;&lt;li style=&quot;font-size: 22px;&quot;&gt;&lt;font style=&quot;font-size: 22px;&quot;&gt;Endereço&lt;/font&gt;&lt;/li&gt;&lt;li style=&quot;font-size: 22px;&quot;&gt;&lt;font style=&quot;font-size: 22px;&quot;&gt;Contato&lt;font style=&quot;font-size: 22px;&quot;&gt;&lt;br style=&quot;font-size: 22px;&quot;&gt;&lt;/font&gt;&lt;/font&gt;&lt;/li&gt;&lt;/ul&gt;" style="ellipse;whiteSpace=wrap;html=1;fontSize=22;fillColor=#e1d5e7;strokeColor=#9673a6;align=left;" vertex="1" parent="1">
          <mxGeometry x="-60" y="-350" width="150" height="220" as="geometry" />
        </mxCell>
        <mxCell id="eemQ0yOxbv3hMDpRS6ys-148" value="&lt;ul&gt;&lt;li style=&quot;font-size: 22px;&quot;&gt;Nome&lt;/li&gt;&lt;li style=&quot;font-size: 22px;&quot;&gt;Informações de Conato&lt;/li&gt;&lt;/ul&gt;" style="ellipse;whiteSpace=wrap;html=1;fontSize=22;fillColor=#e1d5e7;strokeColor=#9673a6;align=left;" vertex="1" parent="1">
          <mxGeometry x="550" y="1169" width="180" height="171" as="geometry" />
        </mxCell>
        <mxCell id="eemQ0yOxbv3hMDpRS6ys-150" value="&lt;ul&gt;&lt;li style=&quot;font-size: 22px;&quot;&gt;Data/Hora&lt;/li&gt;&lt;li style=&quot;font-size: 22px;&quot;&gt;Funcionario&lt;/li&gt;&lt;li style=&quot;font-size: 22px;&quot;&gt;serviço&lt;/li&gt;&lt;/ul&gt;" style="ellipse;whiteSpace=wrap;html=1;fontSize=22;fillColor=#e1d5e7;strokeColor=#9673a6;align=left;" vertex="1" parent="1">
          <mxGeometry x="-487" y="1240" width="167" height="150" as="geometry" />
        </mxCell>
        <mxCell id="eemQ0yOxbv3hMDpRS6ys-152" value="&lt;ul&gt;&lt;li style=&quot;font-size: 22px;&quot;&gt;Produtos/Serviços Selecionados&lt;/li&gt;&lt;li style=&quot;font-size: 22px;&quot;&gt;Total a ser Cobrado&lt;/li&gt;&lt;/ul&gt;" style="ellipse;whiteSpace=wrap;html=1;fontSize=22;fillColor=#e1d5e7;strokeColor=#9673a6;align=left;" vertex="1" parent="1">
          <mxGeometry x="400" y="510" width="280" height="200" as="geometry" />
        </mxCell>
        <mxCell id="eemQ0yOxbv3hMDpRS6ys-154" value="&lt;ul&gt;&lt;li style=&quot;font-size: 22px;&quot;&gt;Data&lt;/li&gt;&lt;li style=&quot;font-size: 22px;&quot;&gt;Serviço&lt;/li&gt;&lt;li style=&quot;font-size: 22px;&quot;&gt;Funconário&lt;/li&gt;&lt;li style=&quot;font-size: 22px;&quot;&gt;Cliente&lt;/li&gt;&lt;/ul&gt;" style="ellipse;whiteSpace=wrap;html=1;fontSize=22;fillColor=#e1d5e7;strokeColor=#9673a6;align=left;" vertex="1" parent="1">
          <mxGeometry x="1370" y="890" width="190" height="160" as="geometry" />
        </mxCell>
        <mxCell id="eemQ0yOxbv3hMDpRS6ys-156" value="&lt;ul&gt;&lt;li style=&quot;font-size: 22px;&quot;&gt;Registro de atividades&lt;/li&gt;&lt;li style=&quot;font-size: 22px;&quot;&gt;Valor total baseado na comissão&lt;/li&gt;&lt;/ul&gt;" style="ellipse;whiteSpace=wrap;html=1;fontSize=22;fillColor=#e1d5e7;strokeColor=#9673a6;align=left;" vertex="1" parent="1">
          <mxGeometry x="1030" y="-50" width="200" height="250" as="geometry" />
        </mxCell>
      </root>
    </mxGraphModel>
  </diagram>
</mxfile>
